<svg xmlns="http://www.w3.org/2000/svg" viewBox="0 0 480 480" width="480" height="480">
  <title>MORTAL #10 soul sigil</title>
  <defs>
    <filter id="glow" x="-50%" y="-50%" width="200%" height="200%">
      <feGaussianBlur stdDeviation="15.27" result="blur"/>
    </filter>
  </defs>
  <rect x="0" y="0" width="480" height="480" fill="#0a0a0f"/>
  <g filter="url(#glow)" opacity="0.28"><rect x="168.00" y="168.00" width="56.73" height="56.73" fill="#ff8fa3"/><rect x="211.64" y="168.00" width="56.73" height="56.73" fill="#ff8fa3"/><rect x="255.27" y="168.00" width="56.73" height="56.73" fill="#ff8fa3"/><rect x="124.36" y="211.64" width="56.73" height="56.73" fill="#ff8fa3"/><rect x="168.00" y="211.64" width="56.73" height="56.73" fill="#ff8fa3"/><rect x="211.64" y="211.64" width="56.73" height="56.73" fill="#ff8fa3"/><rect x="255.27" y="211.64" width="56.73" height="56.73" fill="#ff8fa3"/><rect x="298.91" y="211.64" width="56.73" height="56.73" fill="#ff8fa3"/><rect x="124.36" y="255.27" width="56.73" height="56.73" fill="#c81d4a"/><rect x="168.00" y="255.27" width="56.73" height="56.73" fill="#ff8fa3"/><rect x="211.64" y="255.27" width="56.73" height="56.73" fill="#ff8fa3"/><rect x="255.27" y="255.27" width="56.73" height="56.73" fill="#ff8fa3"/><rect x="298.91" y="255.27" width="56.73" height="56.73" fill="#c81d4a"/><rect x="124.36" y="298.91" width="56.73" height="56.73" fill="#c81d4a"/><rect x="168.00" y="298.91" width="56.73" height="56.73" fill="#c81d4a"/><rect x="255.27" y="298.91" width="56.73" height="56.73" fill="#c81d4a"/><rect x="298.91" y="298.91" width="56.73" height="56.73" fill="#c81d4a"/></g>
  <g shape-rendering="crispEdges"><rect x="174.545" y="174.545" width="43.636" height="43.636" fill="#ff8fa3"/><rect x="218.182" y="174.545" width="43.636" height="43.636" fill="#ff8fa3"/><rect x="261.818" y="174.545" width="43.636" height="43.636" fill="#ff8fa3"/><rect x="130.909" y="218.182" width="43.636" height="43.636" fill="#ff8fa3"/><rect x="174.545" y="218.182" width="43.636" height="43.636" fill="#ff8fa3"/><rect x="218.182" y="218.182" width="43.636" height="43.636" fill="#ff8fa3"/><rect x="261.818" y="218.182" width="43.636" height="43.636" fill="#ff8fa3"/><rect x="305.455" y="218.182" width="43.636" height="43.636" fill="#ff8fa3"/><rect x="130.909" y="261.818" width="43.636" height="43.636" fill="#c81d4a"/><rect x="174.545" y="261.818" width="43.636" height="43.636" fill="#ff8fa3"/><rect x="218.182" y="261.818" width="43.636" height="43.636" fill="#ff8fa3"/><rect x="261.818" y="261.818" width="43.636" height="43.636" fill="#ff8fa3"/><rect x="305.455" y="261.818" width="43.636" height="43.636" fill="#c81d4a"/><rect x="130.909" y="305.455" width="43.636" height="43.636" fill="#c81d4a"/><rect x="174.545" y="305.455" width="43.636" height="43.636" fill="#c81d4a"/><rect x="261.818" y="305.455" width="43.636" height="43.636" fill="#c81d4a"/><rect x="305.455" y="305.455" width="43.636" height="43.636" fill="#c81d4a"/></g>
</svg>